<?xml version="1.0" standalone="no"?>
<!DOCTYPE svg PUBLIC "-//W3C//DTD SVG 20010904//EN"
 "http://www.w3.org/TR/2001/REC-SVG-20010904/DTD/svg10.dtd">
<svg version="1.0" xmlns="http://www.w3.org/2000/svg"
 width="600.000000pt" height="600.000000pt" viewBox="0 0 600.000000 600.000000"
 preserveAspectRatio="xMidYMid meet">
<g transform="translate(0.000000,600.000000) scale(0.100000,-0.100000)"
fill="#d9540d" stroke="none">
<path d="M3315 4685 c-5 -2 -35 -11 -66 -19 -40 -11 -72 -30 -108 -62 -80 -72
-111 -142 -111 -257 0 -55 5 -75 25 -107 28 -44 31 -55 13 -44 -6 4 -8 3 -4
-4 5 -9 -45 -55 -55 -49 -2 1 -3 0 -2 -1 1 -2 -22 -16 -50 -31 -29 -16 -51
-34 -49 -40 1 -7 -2 -9 -8 -6 -7 4 -14 -2 -17 -14 -3 -11 -14 -23 -24 -26 -10
-4 -19 -12 -19 -18 0 -7 -11 -24 -25 -39 -23 -24 -105 -176 -105 -193 0 -4 -7
-23 -16 -43 -26 -59 -47 -119 -70 -197 -8 -27 -19 -59 -23 -70 -17 -40 -40
-171 -37 -216 1 -30 10 -54 24 -69 12 -13 19 -27 16 -32 -3 -5 0 -15 6 -23 7
-8 9 -15 5 -15 -4 0 3 -16 14 -36 12 -19 19 -40 15 -45 -3 -5 0 -8 8 -7 7 2
13 -6 13 -17 0 -14 6 -19 19 -17 11 2 15 -1 11 -7 -4 -7 1 -8 12 -4 10 3 14 2
10 -2 -4 -5 18 -22 50 -37 l58 -27 -50 6 c-27 3 -52 10 -53 14 -2 5 -8 7 -13
3 -5 -3 -23 5 -40 16 -16 12 -33 20 -36 17 -12 -13 -31 18 -21 36 5 9 5 23 1
30 -4 6 -8 17 -9 22 0 6 -2 16 -2 23 -1 7 -7 10 -13 6 -7 -4 -7 1 1 16 9 17 9
21 0 15 -7 -4 -13 1 -17 14 -3 12 -12 21 -19 21 -8 0 -14 4 -14 9 0 13 -29 23
-75 27 -31 2 -780 6 -831 4 -23 0 -52 -39 -46 -62 12 -48 14 -49 470 -51 l429
-2 32 -32 c36 -37 34 -42 -6 -15 -25 15 -66 17 -438 20 -225 1 -416 4 -423 7
-7 3 -10 0 -7 -5 4 -7 -8 -8 -34 -4 -35 6 -43 3 -65 -22 -19 -23 -22 -33 -15
-49 9 -19 9 -19 -4 -2 -22 26 -95 30 -587 30 -463 0 -525 -5 -532 -41 -6 -31
41 -50 118 -47 38 1 74 -1 79 -4 6 -3 159 -6 342 -6 182 0 327 2 323 5 -4 3
42 5 104 5 93 0 116 3 139 19 23 16 30 17 37 6 9 -14 153 -31 196 -22 24 4 64
-20 64 -40 0 -19 64 -98 79 -99 10 0 11 -2 4 -6 -7 -2 -22 2 -34 10 -19 14
-23 13 -45 -11 -64 -71 -84 -97 -90 -114 -3 -10 -10 -18 -15 -18 -5 0 -9 -8
-9 -18 0 -11 -9 -27 -20 -37 -11 -10 -17 -21 -15 -25 3 -5 1 -10 -4 -12 -9 -3
-78 -124 -107 -186 -23 -51 -12 -71 37 -66 39 5 98 32 130 60 9 8 19 11 24 7
4 -5 5 -3 2 3 -4 7 9 29 28 50 19 21 37 46 41 56 3 10 10 18 15 18 6 0 7 5 3
12 -4 6 -3 8 3 5 6 -4 17 1 24 10 12 14 12 16 -1 9 -8 -5 -1 4 15 19 17 14 23
23 15 19 -9 -4 -7 1 5 13 11 11 22 19 24 17 2 -2 10 4 17 14 7 9 17 17 23 17
6 0 11 5 11 10 0 6 15 15 32 21 33 11 50 34 26 34 -46 0 -169 -114 -263 -245
-41 -57 -62 -76 -113 -102 -110 -57 -111 -52 -15 119 47 84 99 172 117 196 17
24 43 61 57 83 l26 39 19 -22 c28 -31 77 -48 139 -48 35 0 54 -4 53 -11 -2 -6
2 -13 9 -16 16 -6 10 27 -8 38 -9 5 22 9 86 11 238 4 341 6 356 8 24 2 41 37
30 59 -6 10 -8 20 -6 23 2 2 -4 4 -13 5 -9 1 -41 5 -70 11 -29 5 -117 10 -195
11 -281 5 -283 5 -308 52 -9 18 2 18 243 15 241 -4 318 -10 318 -26 0 -4 17
-12 39 -18 21 -7 44 -19 51 -27 7 -8 20 -15 29 -16 9 0 3 -6 -14 -14 -16 -8
-26 -14 -21 -15 6 0 1 -7 -10 -15 -10 -8 -16 -15 -11 -15 4 0 0 -14 -8 -30 -9
-17 -13 -35 -10 -40 3 -5 -3 -11 -12 -15 -10 -3 -26 -17 -36 -30 -13 -18 -14
-23 -3 -19 8 3 17 0 22 -7 4 -8 3 -10 -4 -5 -7 4 -14 -3 -18 -18 -5 -23 -7
-23 -24 -8 -11 8 -27 18 -37 21 -24 7 -203 6 -228 -1 -11 -3 -35 -9 -52 -13
-19 -4 -30 -12 -26 -18 3 -5 1 -7 -4 -4 -15 9 -78 -18 -103 -45 -11 -12 -20
-18 -20 -14 0 4 -10 -2 -22 -13 -11 -11 -25 -18 -30 -15 -4 3 -8 -2 -8 -10 0
-8 -9 -18 -21 -21 -14 -5 -18 -12 -14 -23 3 -9 3 -13 -1 -9 -9 9 -35 -13 -29
-23 3 -5 -4 -11 -15 -15 -11 -4 -18 -10 -16 -14 3 -4 -5 -23 -18 -42 -12 -19
-35 -68 -49 -109 -24 -68 -26 -87 -23 -197 2 -76 7 -128 15 -136 6 -8 11 -19
10 -23 -4 -22 2 -35 13 -28 7 4 8 3 4 -4 -7 -12 38 -102 58 -114 6 -4 7 -8 2
-8 -5 0 1 -9 14 -20 13 -11 19 -20 15 -20 -13 0 75 -79 120 -108 22 -15 43
-25 48 -24 4 1 7 -2 7 -8 0 -5 7 -6 17 -3 10 4 14 2 10 -4 -12 -20 120 -56
203 -57 86 -1 136 6 205 29 70 24 186 86 179 96 -3 5 0 9 5 9 18 0 87 72 120
127 37 60 45 103 23 119 -11 8 7 11 73 12 81 2 105 6 94 16 -2 2 -175 8 -384
14 -407 11 -425 14 -451 63 -32 62 -2 179 45 179 11 0 36 -20 57 -46 21 -25
49 -51 64 -59 27 -14 448 -103 603 -128 71 -11 85 -11 76 0 -16 18 18 30 42
15 29 -18 134 -15 150 4 11 13 28 15 96 12 55 -3 83 -1 83 6 0 6 5 4 10 -4 5
-8 10 -10 10 -4 0 7 10 14 23 18 l22 6 -23 18 c-23 17 -21 18 67 15 53 -1 91
2 91 7 0 6 7 10 15 10 8 0 15 -4 15 -9 0 -5 15 -14 33 -19 40 -12 107 -13 107
-1 0 5 9 9 19 9 10 0 21 7 25 15 4 12 11 13 43 2 47 -16 48 -16 103 11 44 21
45 21 20 1 -14 -12 -25 -24 -25 -28 0 -3 -6 -5 -13 -3 -7 2 -11 -3 -10 -10 2
-6 -4 -13 -12 -13 -8 -1 -27 -6 -43 -13 -15 -6 -100 -14 -190 -17 -275 -9
-366 -13 -377 -20 -5 -3 -10 -1 -10 5 0 6 -15 10 -35 8 -19 -1 -32 -4 -30 -7
3 -2 1 -9 -5 -16 -17 -20 1 -52 41 -74 36 -21 55 -23 270 -27 252 -5 377 9
430 47 15 10 32 19 37 19 5 0 12 7 16 15 3 8 11 15 19 15 7 0 24 14 37 30 14
17 33 39 42 48 23 24 82 154 98 217 7 28 14 71 15 98 2 36 8 53 29 72 14 13
26 33 26 44 0 11 5 23 10 26 6 4 8 10 5 15 -3 5 1 15 9 23 8 8 12 17 9 21 -4
3 -1 6 6 6 7 0 10 4 7 9 -3 5 1 22 9 37 8 16 15 33 15 37 0 14 62 142 77 159
8 9 22 14 31 11 13 -4 14 -2 4 4 -10 8 -9 13 4 24 10 8 15 9 11 2 -4 -6 -2
-15 4 -19 7 -4 9 -3 6 3 -3 5 1 19 9 31 l15 22 23 -25 c13 -14 27 -21 31 -17
5 4 6 -1 2 -10 -3 -9 0 -19 8 -21 17 -7 49 -92 41 -113 -3 -9 -12 -14 -20 -11
-7 3 -21 -4 -30 -14 -9 -11 -22 -17 -28 -13 -7 5 -9 2 -6 -7 3 -9 -5 -26 -20
-40 -14 -13 -22 -18 -18 -11 4 6 5 12 2 12 -2 0 -15 -17 -27 -37 -13 -21 -27
-41 -31 -44 -14 -10 -76 -123 -84 -154 -2 -5 -12 -41 -24 -80 -21 -74 -26
-204 -8 -238 10 -20 55 -20 51 0 -2 7 6 15 17 18 12 4 17 12 13 22 -4 11 -3
14 6 9 6 -4 10 -4 9 1 -1 4 6 20 16 35 10 15 14 33 10 39 -4 8 -3 9 5 5 14 -9
6 -62 -12 -84 -7 -9 -7 -32 2 -77 7 -35 10 -69 5 -76 -4 -8 -3 -10 4 -5 7 4
12 1 12 -9 0 -8 4 -23 9 -33 30 -62 48 -91 72 -123 16 -20 26 -39 23 -42 -3
-3 4 -8 15 -12 12 -3 21 -13 21 -21 0 -8 4 -14 10 -14 5 0 19 -11 32 -24 37
-39 166 -109 186 -101 7 3 11 1 8 -4 -6 -10 33 -17 147 -27 45 -4 77 -3 77 2
0 6 23 11 52 12 29 1 57 7 62 12 6 6 18 10 27 10 10 0 24 6 31 13 7 6 35 23
60 36 51 25 182 147 173 160 -3 5 2 11 10 15 8 3 15 12 15 21 0 8 4 15 9 15 7
0 26 38 35 70 1 3 10 29 20 57 27 80 25 228 -4 323 -27 88 -106 224 -123 213
-7 -4 -6 1 2 10 12 15 12 17 -2 12 -9 -4 -21 3 -31 17 -9 12 -16 19 -16 14 0
-5 -9 -1 -20 9 -11 10 -20 25 -20 34 0 11 -3 12 -8 4 -5 -8 -11 -8 -24 1 -17
12 -15 26 4 26 5 0 6 -6 3 -12 -4 -7 1 -4 9 6 9 11 16 17 16 13 0 -4 9 -3 20
3 23 12 23 39 0 57 -8 7 -11 13 -6 13 4 0 -32 19 -80 43 -113 55 -217 81 -304
74 -86 -6 -173 -28 -183 -45 -7 -11 -12 -10 -28 7 -10 11 -19 26 -19 34 0 8
-10 27 -22 43 -13 15 -17 25 -10 21 8 -6 10 -3 6 7 -3 9 -11 13 -18 9 -6 -4
-6 -1 2 9 15 19 3 57 -28 86 -29 27 -12 35 43 21 36 -10 49 -10 75 4 18 8 34
11 38 6 3 -5 13 -9 22 -9 21 0 57 63 47 81 -5 8 -4 10 3 5 9 -5 12 24 12 108
0 71 -4 116 -10 116 -5 0 -10 9 -10 20 0 11 -7 23 -15 26 -8 4 -13 9 -11 13 3
4 -6 8 -20 9 -13 1 -24 -3 -24 -9 0 -6 -6 -4 -14 4 -8 8 -33 13 -58 13 -36 -1
-44 2 -41 15 3 8 -3 21 -11 28 -9 8 -16 20 -16 27 0 8 -7 14 -15 14 -8 0 -15
4 -15 8 0 4 -11 9 -26 10 -33 3 -104 -34 -104 -54 0 -8 -4 -13 -9 -9 -5 3 -12
-4 -16 -15 -9 -29 49 -111 73 -103 16 6 16 5 1 -13 -9 -10 -21 -32 -27 -49
l-10 -30 -7 33 c-4 17 -11 32 -16 32 -4 0 -4 13 1 30 6 21 5 29 -3 27 -7 -1
-11 3 -10 10 2 7 -4 10 -12 7 -8 -4 -15 -1 -15 5 0 6 -9 11 -19 11 -17 0 -46
50 -43 71 1 4 -8 15 -18 24 -11 10 -20 23 -20 30 0 15 -45 65 -58 65 -17 0
-20 23 -15 105 4 75 2 82 -21 107 -15 15 -26 32 -26 38 0 5 -4 10 -8 10 -5 0
-9 14 -10 31 -1 44 -35 110 -69 135 -28 21 -97 38 -87 22 3 -4 -1 -8 -9 -8
-16 0 -61 -43 -63 -59 -1 -6 -2 -12 -3 -13 -1 -2 -4 -19 -6 -38 -6 -49 20
-103 56 -119 16 -7 27 -16 24 -21 -2 -4 16 -3 42 1 38 7 50 6 67 -8 36 -31 37
-35 22 -101 l-8 -32 -26 19 c-19 13 -33 16 -49 10 -14 -5 -25 -4 -29 3 -4 7
-3 8 4 4 7 -4 12 -5 12 -2 0 14 -60 34 -90 31 -40 -5 -73 -15 -80 -25 -9 -12
-71 -39 -64 -28 4 7 2 8 -5 4 -6 -4 -14 -1 -17 7 -3 9 -16 14 -29 12 -14 -1
-22 1 -20 5 4 6 -158 22 -252 24 -25 1 -29 4 -22 17 6 12 2 22 -11 34 -11 10
-19 25 -18 34 2 10 -3 15 -12 13 -8 -2 -12 0 -8 3 4 4 -4 24 -17 44 -14 19
-25 40 -25 44 0 5 -10 23 -22 40 -12 17 -16 27 -8 22 10 -6 9 -2 -2 14 -12 18
-14 30 -6 57 5 19 6 44 3 54 -8 24 16 27 35 5 7 -8 21 -15 30 -15 10 0 20 -4
22 -10 2 -5 21 -12 43 -15 32 -5 45 -3 64 14 13 12 28 21 33 21 5 0 13 11 20
25 6 13 15 22 19 19 5 -3 9 2 9 11 0 10 5 13 12 9 6 -4 8 -3 5 3 -4 6 0 27 8
47 26 61 48 169 46 221 -1 54 -29 155 -42 155 -4 0 -11 9 -14 21 -9 27 -99
121 -108 112 -4 -3 -7 -1 -7 6 0 10 -24 23 -55 31 -5 1 -21 6 -34 11 -25 10
-129 19 -146 14z m190 -55 c65 -31 127 -96 161 -168 37 -76 39 -184 7 -287
-13 -38 -27 -77 -32 -85 -20 -29 -20 -3 -1 59 11 34 21 88 22 118 l3 56 -110
33 c-60 18 -124 33 -142 34 -27 0 -32 -4 -38 -29 -17 -79 61 -184 185 -250 33
-18 60 -36 60 -41 0 -5 -14 -26 -32 -46 -29 -33 -35 -36 -75 -31 -48 5 -140
55 -320 173 -124 81 -143 105 -143 182 0 137 79 251 207 298 60 22 187 14 248
-16z m-50 -270 c0 -1 11 -4 24 -6 14 -2 38 -11 53 -19 19 -9 26 -10 21 -2 -4
7 4 5 18 -5 14 -9 36 -18 50 -20 22 -3 24 -7 21 -43 -2 -22 -7 -44 -10 -50 -4
-5 -8 -19 -9 -30 -9 -80 -13 -81 -77 -37 -21 15 -46 32 -55 37 -43 27 -98 106
-86 125 3 5 1 11 -4 14 -5 3 -7 15 -4 25 4 14 12 19 31 16 15 -2 27 -4 27 -5z
m-287 -227 c89 -64 172 -114 180 -109 13 8 6 -72 -7 -88 -11 -13 -4 -33 44
-123 66 -126 93 -165 106 -158 16 10 10 -2 -8 -16 -10 -7 -14 -9 -10 -4 5 6
-8 14 -34 20 -40 10 -44 14 -89 101 -25 50 -58 118 -72 152 -34 77 -89 139
-136 152 -47 13 -72 13 -72 0 0 -5 9 -10 20 -10 28 0 70 -23 97 -52 12 -13 56
-97 97 -187 74 -162 75 -164 55 -180 -19 -15 -18 -16 28 -16 77 0 438 -41 456
-52 10 -6 4 -113 -8 -145 -4 -9 -14 -20 -23 -24 -29 -13 -443 -17 -488 -5 -86
23 -148 90 -261 279 -49 82 -57 90 -68 75 -15 -20 0 -67 58 -183 33 -66 139
-183 178 -195 14 -5 18 -12 14 -23 -4 -10 -12 -29 -17 -45 -9 -25 -13 -27 -47
-20 -59 12 -282 8 -331 -5 -61 -17 -152 -54 -146 -59 2 -2 30 4 62 14 86 26
302 24 450 -5 151 -30 314 -77 399 -116 90 -41 110 -70 109 -151 0 -53 -9 -78
-73 -215 -129 -272 -221 -450 -234 -450 -20 1 -228 48 -233 53 -3 3 6 27 19
54 14 26 52 116 87 198 105 254 107 259 153 288 46 30 29 36 -30 12 -34 -14
-53 -14 -198 0 -212 21 -349 43 -412 67 -83 31 -153 125 -153 207 0 12 -6 21
-15 21 -57 0 -23 208 81 488 89 242 204 396 325 439 28 10 53 27 60 40 7 13
14 23 17 23 2 0 34 -21 70 -47z m-98 33 c0 -2 -8 -10 -17 -17 -16 -13 -17 -12
-4 4 13 16 21 21 21 13z m1041 -242 c36 -18 74 -94 65 -129 -3 -13 -2 -25 2
-27 4 -2 23 -24 41 -49 31 -44 32 -50 26 -105 -3 -33 -8 -68 -10 -80 -3 -15 4
-24 29 -36 26 -13 43 -36 79 -105 l46 -89 -30 -11 c-29 -11 -29 -11 -66 60
-27 51 -47 76 -69 87 -30 14 -31 17 -29 70 1 30 5 78 9 105 7 47 6 52 -26 89
-30 34 -36 38 -55 27 -33 -17 -69 -13 -98 12 -51 44 -48 157 6 184 32 17 44
16 80 -3z m-1026 -356 c8 -10 12 -18 9 -18 -4 0 -1 -6 5 -14 9 -11 9 -15 -1
-19 -8 -3 -5 -6 6 -6 11 -1 16 -4 13 -8 -4 -3 5 -15 20 -25 16 -10 24 -18 19
-18 -5 0 -3 -7 4 -15 7 -8 17 -12 23 -8 6 3 7 1 3 -6 -4 -6 -13 -8 -19 -4 -17
10 -78 80 -78 90 0 4 -8 16 -16 26 -9 9 -12 17 -7 17 5 0 0 7 -10 15 -11 8
-17 18 -13 21 4 4 3 12 -1 19 -7 11 17 -15 43 -47z m967 15 c27 -32 46 -96 37
-127 -16 -59 -74 -90 -121 -65 -23 13 -23 13 9 21 23 6 35 16 39 33 14 55 -52
76 -83 28 -22 -35 -33 -43 -60 -43 -21 0 -22 4 -20 60 1 33 2 60 2 60 0 0 27
11 60 25 71 29 116 32 137 8z m89 -32 c19 -16 24 -29 24 -69 0 -56 -17 -82
-53 -82 -23 0 -24 1 -10 18 27 30 30 73 8 115 -23 43 -9 51 31 18z m-149 -95
c7 4 8 2 4 -5 -4 -6 -11 -9 -15 -6 -13 8 -43 -32 -39 -52 4 -23 78 -50 89 -32
4 7 14 9 23 6 9 -4 15 -1 13 6 -1 6 8 13 21 15 12 2 22 -2 22 -8 0 -15 59 17
67 36 7 18 27 18 43 -1 7 -8 17 -12 23 -8 6 4 7 1 3 -6 -5 -7 -1 -20 7 -29 30
-35 55 -99 44 -117 -11 -20 15 -85 33 -85 6 0 9 -4 6 -8 -3 -5 4 -15 15 -22
10 -8 19 -19 20 -25 1 -23 46 -105 54 -98 4 5 5 0 2 -10 -4 -11 -3 -16 3 -12
6 3 10 -3 10 -14 0 -11 5 -23 11 -27 6 -3 9 -15 6 -25 -3 -11 -2 -17 1 -15 10
6 28 -17 26 -31 -1 -7 -2 -17 -3 -23 0 -5 -7 -10 -15 -10 -18 0 -49 48 -42 66
3 8 1 14 -4 14 -6 0 -10 6 -10 14 0 8 -8 17 -17 21 -21 7 -57 -30 -46 -49 4
-8 3 -8 -6 0 -10 9 -10 17 -1 34 20 37 4 136 -29 174 -9 10 -15 20 -13 23 2 2
-13 17 -32 32 -20 16 -33 30 -31 33 3 3 -1 5 -7 6 -7 0 -22 3 -33 6 -11 2 -26
5 -33 5 -7 1 -11 5 -8 10 3 4 -5 6 -18 4 -19 -4 -25 0 -30 21 -4 16 -17 31
-32 36 -57 22 -170 0 -168 -33 1 -9 -2 -14 -7 -11 -5 3 -9 0 -9 -5 0 -6 -15
-11 -34 -11 -19 0 -38 -5 -41 -10 -3 -6 -17 -8 -31 -6 -14 3 -22 1 -19 -5 4
-5 -8 -9 -25 -9 -17 0 -38 -7 -47 -15 -8 -8 -18 -13 -22 -11 -3 2 -17 -4 -31
-14 -20 -15 -22 -21 -12 -33 10 -12 10 -17 1 -23 -8 -4 -9 -3 -5 4 4 7 2 13
-3 13 -6 1 -14 2 -18 3 -5 1 -23 6 -40 10 -18 4 -33 12 -33 18 0 5 -6 8 -12 5
-7 -2 -25 2 -40 10 -16 7 -28 11 -28 7 0 -4 -7 -1 -15 6 -8 7 -22 10 -30 6 -8
-3 -15 -2 -15 3 0 7 -55 20 -102 24 -10 1 -18 5 -18 9 0 4 -15 8 -34 8 -40 0
-56 16 -26 25 11 4 18 10 15 15 -3 5 -1 10 4 12 5 1 12 17 15 34 6 27 3 35
-24 58 -17 14 -27 26 -22 26 5 0 15 -7 22 -15 7 -9 15 -14 17 -11 3 2 24 -4
48 -15 39 -17 67 -19 242 -19 109 1 205 5 213 10 9 6 20 4 29 -3 12 -9 13 -9
7 1 -4 7 -2 12 7 12 7 0 24 11 36 24 18 19 28 23 46 16 16 -6 31 -3 55 11 18
11 30 23 26 26 -3 3 2 12 12 19 14 10 18 10 20 -2 2 -8 8 -11 14 -8z m639 -65
c16 -16 29 -33 29 -38 0 -5 -16 -15 -35 -22 -19 -7 -49 -24 -65 -38 -17 -14
-32 -24 -34 -22 -1 2 -12 20 -23 41 l-21 36 21 20 c23 21 76 52 90 52 5 0 22
-13 38 -29z m127 -163 c-7 -77 -3 -181 8 -237 5 -24 4 -24 -52 -18 -81 8 -122
40 -158 121 -29 66 -29 66 -12 111 14 35 28 51 62 71 38 22 136 46 154 38 3
-2 2 -40 -2 -86z m82 46 c20 -38 20 -226 1 -269 -8 -16 -14 -33 -13 -37 1 -4
-5 -5 -13 -2 -23 9 -30 49 -30 174 0 165 17 208 55 134z m-396 3 c8 -12 15
-31 14 -42 -2 -28 142 -315 157 -315 18 0 44 -54 35 -71 -5 -9 60 -152 167
-373 95 -197 172 -361 169 -363 -2 -3 4 -13 15 -24 23 -23 24 -42 3 -64 -25
-25 -66 -15 -84 20 -8 17 -94 191 -190 388 -96 196 -180 357 -187 357 -16 0
-44 55 -37 73 7 19 -137 316 -153 317 -16 0 -35 36 -31 57 3 13 81 63 100 63
4 0 14 -10 22 -23z m-355 -11 c10 -12 -1 -15 -78 -18 -65 -2 -91 0 -91 9 0 17
18 21 91 22 46 1 70 -3 78 -13z m72 -57 c57 -15 118 -65 141 -116 26 -60 26
-117 -1 -178 -26 -60 -62 -99 -116 -128 -38 -21 -52 -22 -254 -20 -117 1 -216
4 -219 7 -2 3 0 11 5 18 21 26 53 130 53 170 0 62 -35 126 -86 157 -24 14 -44
29 -44 32 0 14 201 63 300 72 51 5 179 -3 221 -14z m-1654 -54 c25 -11 39 -29
64 -80 17 -36 29 -68 27 -71 -3 -2 -27 19 -55 46 l-51 50 -435 0 c-421 0 -437
1 -447 19 -7 15 -6 24 6 36 15 14 62 16 438 14 327 -1 428 -4 453 -14z m1213
-90 c0 -12 -19 -12 -23 0 -4 9 -1 12 9 8 7 -3 14 -7 14 -8z m18 -43 c6 -18
-15 -14 -22 4 -4 10 -1 14 6 12 6 -2 14 -10 16 -16z m-1148 -62 c83 -41 141
-63 183 -69 214 -32 347 -56 347 -63 0 -5 -100 -8 -222 -6 l-223 3 -115 57
-115 57 -283 3 c-155 2 -282 2 -282 0 0 -2 6 -15 14 -30 18 -34 55 -68 81 -75
11 -3 115 -8 230 -12 252 -7 305 -14 305 -40 0 -22 -36 -25 -293 -25 -309 0
-309 0 -392 131 l-33 53 -104 3 c-57 1 -108 3 -114 3 -16 0 -26 29 -19 51 6
18 27 19 459 19 l453 0 123 -60z m1160 30 c0 -5 -5 -10 -11 -10 -5 0 -7 5 -4
10 3 6 8 10 11 10 2 0 4 -4 4 -10z m-2244 -23 c25 -25 -32 -29 -442 -32 -453
-2 -641 3 -637 20 2 6 33 13 70 16 94 9 1000 5 1009 -4z m2239 -7 c3 -5 1 -10
-4 -10 -6 0 -11 5 -11 10 0 6 2 10 4 10 3 0 8 -4 11 -10z m691 -118 c26 -23
27 -25 9 -35 -61 -34 -93 -83 -164 -254 -39 -95 -71 -177 -71 -183 0 -5 -4
-10 -10 -10 -5 0 -10 7 -10 16 0 9 -7 31 -15 48 -15 32 -15 35 41 162 30 71
78 176 105 233 27 57 49 109 49 116 0 33 15 20 26 -22 7 -29 23 -57 40 -71z
m-1546 68 c11 -7 6 -8 -19 -5 -18 2 -36 6 -39 9 -9 10 42 6 58 -4z m1444 -16
c3 -8 2 -12 -4 -9 -6 3 -10 10 -10 16 0 14 7 11 14 -7z m-1397 0 c-3 -3 -12
-4 -19 -1 -8 3 -5 6 6 6 11 1 17 -2 13 -5z m779 -42 c-14 -15 -15 -13 -3 17 8
23 13 28 15 16 2 -10 -3 -25 -12 -33z m-595 22 c227 -17 243 -20 220 -48 -7
-8 -9 -21 -5 -27 4 -8 3 -9 -4 -5 -8 4 -12 0 -12 -11 0 -15 -2 -16 -10 -3 -5
8 -10 10 -10 4 0 -5 6 -16 13 -23 10 -11 10 -13 0 -7 -9 5 -13 -2 -13 -23 0
-17 -4 -31 -8 -31 -13 0 -43 -81 -35 -93 4 -6 1 -7 -7 -2 -10 6 -12 4 -7 -9 5
-11 3 -15 -4 -10 -7 4 -10 1 -7 -7 3 -8 -7 -36 -21 -64 -14 -27 -27 -58 -28
-68 -2 -10 -10 -28 -18 -40 -8 -12 -15 -31 -15 -42 0 -16 -2 -17 -10 -5 -9 13
-10 13 -10 -1 0 -8 5 -20 11 -26 7 -7 6 -14 -4 -25 -32 -31 -81 -144 -70 -161
4 -6 1 -7 -6 -3 -8 6 -11 2 -9 -10 3 -15 -4 -18 -44 -18 -27 -1 -48 2 -48 6 0
4 -21 6 -47 5 -27 -1 -84 2 -128 6 -44 5 -99 9 -122 9 -24 0 -41 4 -38 8 3 5
12 7 20 3 8 -3 15 0 15 6 0 6 -11 16 -25 21 -14 5 -25 15 -25 23 0 7 -13 28
-30 47 -29 35 -38 64 -21 74 13 8 60 -50 87 -109 13 -27 24 -45 24 -40 0 6 6
3 13 -6 10 -13 29 -17 81 -17 72 0 106 16 101 48 -6 33 -76 172 -99 195 -13
13 -22 26 -19 28 2 3 -8 13 -22 24 -15 10 -37 28 -50 40 -12 12 -25 20 -28 17
-2 -2 -10 2 -17 11 -10 12 -9 16 3 21 9 3 13 12 10 20 -3 8 0 14 7 14 6 0 8 5
4 12 -4 7 -3 8 5 4 6 -4 9 -12 6 -17 -4 -5 5 -20 19 -34 15 -14 26 -28 26 -29
0 -11 70 -72 76 -67 4 3 4 0 0 -7 -5 -8 -2 -18 7 -25 26 -21 97 -154 97 -184
0 -8 4 -11 10 -8 5 3 7 0 4 -8 -3 -9 4 -21 15 -29 12 -8 18 -18 14 -22 -11
-11 39 -2 61 11 19 11 19 12 1 98 -11 55 -25 94 -37 104 -10 8 -18 21 -18 27
0 6 -7 17 -15 24 -18 15 -20 35 -3 24 7 -4 8 -3 4 5 -6 9 -11 9 -22 0 -9 -7
-14 -8 -13 -3 4 21 -2 35 -11 29 -5 -3 -10 -1 -10 4 0 15 4 14 44 -10 19 -11
40 -18 45 -15 5 4 12 3 14 -2 3 -4 20 -7 39 -6 96 5 113 9 143 39 17 16 30 33
28 38 -2 4 1 7 6 7 6 0 11 7 11 15 0 8 16 43 35 79 58 107 31 157 -81 152 -36
-1 -59 1 -52 6 10 6 10 8 1 8 -20 0 -15 17 7 23 11 3 20 12 20 20 0 17 -12 22
-73 33 -20 3 -40 11 -43 16 -4 6 1 8 13 4 11 -4 54 -9 94 -12z m1175 -51 c-14
-27 -26 -55 -28 -63 -2 -8 -5 -17 -8 -20 -6 -5 -44 -90 -46 -100 0 -3 -10 -25
-22 -50 -12 -25 -22 -53 -22 -63 0 -10 -4 -16 -9 -13 -5 3 -11 -9 -15 -26 l-6
-32 -28 27 c-16 15 -33 27 -40 27 -7 0 -12 5 -12 11 0 6 -6 9 -14 6 -8 -3 -22
4 -33 15 -10 12 -13 19 -7 15 19 -11 33 47 18 82 -12 28 -59 59 -72 47 -2 -3
-11 1 -18 9 -8 8 -21 12 -29 9 -8 -4 -15 -1 -15 6 0 6 -4 9 -9 5 -6 -3 -15 1
-22 8 -7 7 -25 11 -43 9 -17 -3 -28 -1 -24 3 9 10 307 12 301 3 -2 -5 29 4 69
18 83 30 112 44 105 50 -4 4 43 62 51 64 1 0 -9 -21 -22 -47z m-595 -21 c-8
-15 -6 -23 8 -36 9 -9 23 -16 29 -16 18 0 15 -7 -19 -39 -17 -17 -28 -34 -25
-40 3 -5 -8 -24 -26 -42 -22 -21 -29 -34 -20 -37 10 -3 10 -7 1 -18 -7 -8 -9
-17 -6 -21 4 -3 3 -11 -2 -17 -16 -20 -17 -61 -2 -61 8 0 16 -6 19 -14 3 -8 0
-11 -5 -8 -6 4 -9 -9 -7 -33 2 -32 -1 -40 -14 -41 -12 0 -11 -3 6 -9 12 -5 22
-12 22 -15 0 -4 -5 -3 -11 1 -6 3 -15 1 -19 -6 -4 -6 -32 -13 -61 -14 -30 -1
-62 -5 -71 -10 -12 -5 -20 -1 -28 14 -8 15 -8 20 -1 16 6 -4 11 -1 11 6 0 7
16 46 35 85 19 40 35 77 35 82 0 5 3 11 8 13 11 5 52 85 52 102 0 9 5 16 11
16 6 0 9 7 6 15 -4 8 -2 17 4 21 12 7 33 55 30 68 -1 5 6 6 15 2 14 -5 15 -4
4 9 -10 12 -10 15 0 15 8 0 11 3 7 6 -3 3 0 12 6 19 16 18 21 11 8 -13z m-805
-14 c-7 -4 -36 -8 -64 -9 -29 -2 -52 -7 -52 -11 0 -5 -5 -6 -10 -3 -6 4 -7 11
-4 17 4 7 2 8 -5 4 -9 -6 -9 -11 -1 -21 9 -10 6 -16 -10 -25 -15 -8 -19 -17
-14 -33 8 -27 56 -104 82 -132 10 -12 17 -26 14 -33 -2 -7 2 -10 11 -7 19 8
43 -20 26 -31 -8 -5 -9 -3 -5 5 6 8 2 11 -10 9 -12 -2 -23 6 -29 20 -5 12 -18
25 -27 28 -10 3 -18 12 -18 21 0 10 -6 13 -16 9 -11 -4 -15 -2 -11 8 4 10 1
13 -8 9 -8 -3 -18 2 -21 11 -5 13 -9 14 -20 5 -15 -12 -44 -6 -44 11 0 5 6 10
13 10 7 0 18 9 25 21 10 15 10 19 1 14 -8 -6 -10 -4 -5 4 5 7 15 10 23 7 9 -4
11 -2 6 7 -12 20 -12 38 0 30 7 -3 5 2 -4 13 -39 47 -35 50 81 49 60 0 103 -3
96 -7z m147 -5 c-6 -16 -16 -16 -78 1 l-50 13 66 -1 c49 -1 65 -4 62 -13z
m-382 -4 c31 -16 39 -49 21 -86 -18 -38 -23 -39 -79 -13 -47 21 -51 35 -28 80
17 32 49 39 86 19z m577 -61 c2 -16 -15 -63 -47 -126 -58 -116 -73 -126 -178
-120 -84 4 -100 16 -187 131 -111 149 -105 154 190 147 l219 -5 3 -27z m1862
-4 c67 -15 165 -60 210 -94 21 -17 23 -21 10 -30 -15 -11 -36 -10 -190 10 -92
13 -195 7 -268 -15 -25 -8 -47 -13 -48 -12 -3 3 -54 119 -54 122 0 2 67 21
105 29 48 9 175 5 235 -10z m-1209 -29 c49 -14 94 -23 98 -21 4 3 9 -3 10 -12
4 -33 4 -73 -1 -78 -5 -4 -263 62 -280 73 -5 2 -1 17 7 34 20 37 45 38 166 4z
m-1291 -37 c81 -42 56 -74 -29 -37 -35 15 -51 27 -51 40 0 25 26 24 80 -3z
m1253 -67 c75 -21 140 -41 144 -45 4 -3 2 -11 -3 -16 -13 -13 -316 70 -322 88
-6 20 34 14 181 -27z m-1430 13 c15 -3 27 -8 27 -11 0 -3 -10 -32 -21 -64
l-22 -59 -76 1 c-127 2 -225 -35 -309 -120 -235 -235 -105 -631 225 -693 129
-24 269 27 368 134 l54 58 70 0 c46 0 71 -4 71 -11 0 -6 -15 -37 -34 -68 -72
-117 -200 -211 -336 -246 -129 -34 -301 -5 -421 71 -69 43 -151 133 -191 210
-118 224 -80 461 102 645 135 136 304 189 493 153z m164 -10 c35 -15 45 -44
14 -44 -22 0 -82 20 -95 31 -5 4 -6 15 -2 24 6 17 18 16 83 -11z m212 -54 c87
-83 157 -188 175 -262 21 -88 21 -88 -14 -88 -18 0 -30 5 -30 13 0 7 -20 54
-44 103 -48 99 -119 199 -173 243 -27 22 -34 34 -28 50 6 21 7 21 37 4 16 -10
51 -38 77 -63z m1829 15 c27 -61 40 -78 54 -69 4 3 8 0 8 -7 0 -6 -8 -9 -20
-6 -12 3 -24 -1 -30 -11 -5 -10 -10 -12 -10 -6 0 5 5 15 12 22 9 9 9 12 -1 12
-21 0 -118 -99 -160 -163 -22 -34 -56 -104 -75 -155 -19 -51 -47 -109 -62
-129 -24 -31 -28 -33 -37 -18 -11 20 -2 144 15 215 16 68 70 178 117 240 44
58 138 143 153 138 5 -2 21 -30 36 -63z m507 17 c-3 -3 -11 0 -18 7 -9 10 -8
11 6 5 10 -3 15 -9 12 -12z m-1306 -32 c79 -22 146 -42 149 -45 3 -3 1 -10 -5
-16 -8 -8 -25 -7 -60 4 -26 9 -94 28 -150 43 -67 17 -103 32 -103 40 0 20 8
18 169 -26z m1375 32 c3 -5 -8 -6 -25 -4 -16 2 -29 6 -29 8 0 8 49 4 54 -4z
m-350 -24 c-5 -8 3 -9 27 -4 86 18 163 18 274 1 108 -16 120 -20 165 -56 126
-100 200 -256 200 -424 0 -154 -53 -280 -166 -392 -77 -78 -149 -119 -259
-148 -223 -57 -482 58 -599 268 -46 82 -82 217 -66 247 6 11 19 54 30 94 31
123 95 229 173 286 l41 30 19 -35 18 -35 -37 -38 c-49 -51 -80 -106 -98 -177
-21 -80 -20 -140 4 -218 38 -123 129 -222 247 -268 45 -18 78 -23 148 -23 84
0 96 2 167 36 93 44 156 106 201 198 30 61 32 71 32 175 0 97 -3 116 -26 165
-38 81 -118 163 -196 202 -58 28 -79 33 -165 36 -73 3 -102 1 -115 -9 -9 -8
-14 -9 -10 -3 3 6 1 27 -5 47 -8 26 -17 37 -32 38 -19 2 -19 2 2 6 13 3 19 9
16 15 -4 7 -2 8 5 4 6 -4 8 -12 5 -18z m-2305 -4 c57 -23 65 -66 9 -48 -62 19
-87 35 -82 49 8 19 24 19 73 -1z m1189 -33 c37 -11 102 -30 145 -42 42 -12 77
-25 77 -30 0 -20 -28 -18 -132 11 -168 47 -178 50 -178 66 0 18 9 18 88 -5z
m-1108 -1 c0 -5 -2 -10 -4 -10 -3 0 -8 5 -11 10 -3 6 -1 10 4 10 6 0 11 -4 11
-10z m1436 -14 c127 -86 137 -246 29 -442 -43 -77 -108 -137 -193 -177 l-67
-32 -270 -3 c-286 -4 -336 2 -356 39 -17 33 1 42 55 28 30 -7 72 -9 114 -5 37
4 150 11 252 15 169 7 190 10 242 33 98 45 179 152 213 284 14 52 14 64 0 111
-18 60 -74 115 -98 94 -10 -8 -14 -7 -14 4 0 8 4 12 8 9 5 -3 15 11 23 31 8
19 18 35 21 35 3 0 22 -11 41 -24z m-1542 -2 c34 -12 46 -21 44 -33 -4 -18
-21 -17 -73 4 -19 9 -35 22 -35 30 0 19 6 19 64 -1z m189 -64 c55 -58 127
-185 127 -221 0 -17 -8 -19 -68 -19 l-68 0 -27 55 c-14 30 -42 72 -61 93 l-35
39 26 56 c15 31 32 57 39 57 6 0 37 -27 67 -60z m-292 27 c-6 -8 -8 -16 -5
-19 3 -3 1 -9 -4 -12 -6 -3 -9 0 -8 6 2 16 15 38 23 38 3 0 0 -6 -6 -13z m89
-13 c28 -11 40 -22 38 -33 -4 -18 -25 -17 -75 4 -33 14 -46 45 -18 45 8 0 33
-7 55 -16z m1290 -11 c103 -28 120 -37 103 -54 -7 -7 -30 -5 -79 10 -38 11
-88 25 -111 31 -26 6 -43 17 -43 25 0 21 20 19 130 -12z m-1449 1 c28 -5 35
-10 32 -23 -3 -14 -17 -17 -71 -18 -152 -2 -269 -87 -317 -232 -22 -66 -16
-169 14 -235 28 -63 94 -131 160 -163 49 -24 67 -28 146 -28 77 1 97 5 140 27
28 14 63 40 79 57 21 21 39 31 60 31 l30 0 -44 -46 c-166 -168 -442 -145 -572
48 -77 114 -89 243 -33 365 64 143 233 240 376 217z m2687 -4 c240 -45 373
-300 273 -525 -30 -68 -111 -148 -184 -181 -54 -25 -74 -29 -157 -29 -84 1
-102 4 -155 30 -79 38 -157 118 -187 192 -35 88 -33 216 5 299 16 34 44 76 62
94 31 30 34 31 43 13 8 -15 5 -24 -15 -43 -13 -13 -36 -46 -51 -74 -23 -44
-27 -63 -27 -141 0 -71 5 -100 22 -137 73 -159 263 -239 419 -176 114 46 180
120 209 237 52 203 -105 402 -319 405 -64 1 -85 8 -86 28 0 6 32 13 76 17 12
0 44 -3 72 -9z m-428 -4 c0 -2 -7 -7 -16 -10 -8 -3 -12 -2 -9 4 6 10 25 14 25
6z m-578 -38 c10 -16 22 -28 28 -28 5 0 10 -5 10 -11 0 -5 -6 -7 -12 -3 -10 6
-10 4 0 -7 14 -16 16 -85 2 -94 -5 -3 -10 -12 -10 -18 0 -7 4 -6 10 3 5 8 10
11 10 7 0 -5 -8 -21 -19 -35 -10 -15 -20 -36 -22 -46 -5 -24 -29 -33 -29 -11
0 9 4 14 9 10 5 -3 2 13 -7 36 -16 41 -88 113 -103 103 -5 -3 -9 2 -9 10 0 9
4 16 10 16 5 0 7 6 4 14 -3 9 9 30 28 50 40 43 75 44 100 4z m-1555 5 c32 -13
43 -24 43 -39 0 -12 -8 -24 -17 -26 -11 -3 -29 -33 -46 -74 l-28 -69 -38 3
-39 4 25 56 c13 30 31 68 38 82 10 19 11 30 3 38 -11 11 -4 42 9 42 4 0 27 -8
50 -17z m1316 -19 c97 -28 123 -51 53 -47 -46 3 -173 40 -181 53 -8 14 5 32
19 27 6 -2 55 -17 109 -33z m777 22 c0 -2 -8 -10 -17 -17 -16 -13 -17 -12 -4
4 13 16 21 21 21 13z m-2194 -29 c16 6 17 -1 8 -46 -4 -17 -10 -29 -14 -26 -4
2 -6 -7 -4 -21 2 -19 -1 -24 -12 -20 -8 3 -13 2 -10 -2 3 -5 -1 -21 -9 -36 -8
-14 -10 -24 -6 -21 5 3 11 -2 14 -9 5 -11 -1 -13 -28 -9 -35 6 -92 -4 -82 -13
3 -3 183 -19 400 -34 366 -26 397 -30 416 -49 11 -11 31 -23 43 -25 81 -17
286 -68 303 -76 13 -6 -19 -9 -97 -9 -76 -1 -119 -5 -124 -12 -12 -20 -219 -1
-524 47 -157 24 -293 47 -303 50 -9 3 -45 32 -79 65 -61 59 -93 73 -104 44 -4
-8 -10 -13 -14 -10 -14 9 -50 -78 -43 -104 5 -19 3 -22 -8 -16 -10 6 -9 3 2
-11 9 -10 14 -24 12 -31 -2 -7 5 -22 16 -34 11 -12 18 -25 16 -29 -6 -9 82
-37 130 -41 22 -2 81 -2 130 -1 50 2 105 0 123 -3 l33 -6 -28 -33 c-15 -18
-31 -31 -35 -29 -5 2 -8 0 -8 -5 0 -6 -11 -13 -25 -16 -14 -4 -25 -11 -25 -16
0 -5 -7 -7 -15 -4 -8 4 -15 2 -15 -3 0 -5 -10 -10 -22 -11 -71 -6 -129 -4
-154 5 -16 6 -38 15 -49 19 -11 4 -23 8 -26 8 -25 4 -102 91 -126 141 -35 79
-35 183 2 256 13 26 23 49 22 51 -1 1 -1 2 1 2 8 -4 57 52 53 61 -2 6 -1 7 4
3 4 -4 21 4 37 17 16 14 38 25 48 25 10 0 21 4 24 8 3 5 31 10 63 11 32 1 60
4 63 7 2 3 6 1 8 -5 2 -5 10 -7 18 -4z m2617 -4 c6 -3 7 -1 3 5 -8 13 -8 13
77 -14 31 -10 57 -22 57 -26 0 -4 10 -8 23 -8 18 0 19 -2 7 -10 -12 -8 -11
-10 6 -10 12 0 27 -7 34 -15 11 -13 10 -14 -3 -9 -9 3 -1 -11 18 -32 20 -21
33 -44 30 -52 -2 -7 -1 -11 4 -8 13 8 22 -19 31 -93 7 -54 5 -73 -12 -120 -24
-64 -27 -67 -92 -132 -27 -27 -61 -52 -75 -56 -14 -3 -29 -11 -33 -17 -10 -16
-171 -14 -190 2 -9 7 -20 12 -24 10 -5 -1 -31 12 -59 30 -27 17 -47 32 -43 32
4 0 -4 12 -17 26 -14 15 -25 31 -25 36 0 5 -5 6 -10 3 -6 -4 -10 -3 -8 2 4 15
-13 73 -20 69 -4 -2 -6 36 -5 85 2 70 6 97 22 123 12 18 17 37 13 41 -4 5 -1
4 7 0 11 -6 13 -4 8 9 -4 10 -3 15 3 11 6 -3 10 1 10 9 0 9 5 16 10 16 6 0 14
10 19 23 7 19 14 10 53 -73 58 -122 61 -130 43 -123 -8 3 -13 9 -10 13 3 4 -2
13 -9 20 -12 9 -19 7 -35 -9 -21 -21 -25 -59 -12 -112 8 -36 71 -111 88 -105
7 3 13 -1 13 -9 0 -11 12 -15 43 -16 23 -1 46 -1 51 0 4 1 23 2 42 3 18 1 31
5 29 9 -5 6 3 11 30 20 6 1 19 14 30 28 11 14 23 28 27 29 5 2 5 8 2 13 -3 6
-1 16 5 23 13 15 18 67 7 84 -4 7 -3 12 3 12 11 0 -24 76 -39 85 -6 4 -7 11
-4 17 4 7 2 8 -4 4 -7 -4 -12 -3 -12 3 0 6 -7 7 -17 4 -10 -4 -14 -2 -10 4 9
14 -72 35 -92 24 -10 -7 -19 1 -32 27 -10 19 -16 38 -14 42 3 5 -2 10 -10 14
-8 3 -14 16 -13 30 2 22 6 24 36 20 19 -2 39 -7 45 -11z m-1517 -35 c15 -17
16 -20 3 -16 -15 6 -17 2 -21 -42 -1 -11 -6 -20 -11 -20 -4 0 -6 -4 -3 -9 3
-5 -1 -11 -9 -15 -8 -3 -14 -2 -13 2 4 14 -14 52 -22 47 -5 -3 -11 -1 -14 4
-4 5 5 8 18 7 23 -3 42 16 38 37 -1 4 3 7 9 7 5 0 7 5 4 10 -11 17 1 11 21
-12z m287 -14 c129 -36 180 -60 200 -93 49 -83 -18 -191 -118 -191 -25 0 -25
1 -12 28 8 15 17 39 20 53 10 39 -19 124 -50 149 -34 27 -123 52 -170 48 -35
-3 -33 -4 35 -22 40 -10 86 -29 102 -43 64 -53 61 -144 -5 -202 -32 -28 -42
-31 -102 -31 -63 0 -65 1 -50 18 21 23 22 90 2 119 -8 12 -36 29 -62 39 -82
31 -93 41 -81 75 14 41 52 63 101 62 22 -1 48 2 56 7 23 14 33 13 134 -16z
m-532 -13 c30 -10 72 -21 93 -25 29 -6 52 -21 85 -55 30 -32 63 -54 96 -66 80
-28 103 -67 65 -105 -17 -17 -33 -20 -102 -20 -68 1 -97 6 -157 30 -47 18 -79
26 -86 20 -13 -11 -91 5 -122 26 -13 8 -23 23 -23 33 0 37 71 181 89 181 4 0
32 -8 62 -19z m-660 -70 c11 -12 17 -25 14 -30 -3 -5 4 -12 15 -16 11 -4 18
-11 14 -16 -3 -6 -12 -5 -22 3 -13 10 -14 10 -8 0 6 -10 -6 -12 -56 -8 -35 2
-65 5 -68 6 -3 1 -8 2 -11 2 -8 -1 53 122 65 130 5 4 16 -6 24 -22 7 -15 22
-37 33 -49z m2498 -33 c38 -24 71 -87 71 -138 0 -49 -38 -110 -85 -137 -109
-62 -247 14 -249 137 -1 28 4 54 11 60 7 5 11 7 8 4 -17 -25 99 -144 140 -144
73 0 116 83 72 138 -5 7 -21 36 -34 64 l-23 50 27 -7 c16 -3 43 -16 62 -27z
m-1994 -98 c3 -5 2 -10 -4 -10 -5 0 -13 5 -16 10 -3 6 -2 10 4 10 5 0 13 -4
16 -10z m205 -58 c7 -8 7 -9 -1 -3 -6 5 -18 7 -25 4 -8 -3 -14 -1 -14 5 0 13
27 9 40 -6z m40 -12 c0 -5 -5 -10 -11 -10 -5 0 -7 5 -4 10 3 6 8 10 11 10 2 0
4 -4 4 -10z m-723 -146 c-3 -3 -12 -4 -19 -1 -8 3 -5 6 6 6 11 1 17 -2 13 -5z
m56 -15 c-8 -8 -16 -8 -30 0 -16 9 -14 10 12 11 21 0 26 -3 18 -11z"/>
<path d="M3250 4586 c0 -2 7 -7 16 -10 8 -3 12 -2 9 4 -6 10 -25 14 -25 6z"/>
<path d="M3360 4226 c0 -2 8 -10 18 -17 15 -13 16 -12 3 4 -13 16 -21 21 -21
13z"/>
<path d="M3541 4073 c3 -21 -3 -24 -18 -12 -16 13 -17 12 -4 -4 10 -13 17 -15
27 -6 8 6 11 15 8 20 -6 11 -14 12 -13 2z"/>
<path d="M3515 4019 c-3 -4 2 -6 10 -5 21 3 28 13 10 13 -9 0 -18 -4 -20 -8z"/>
<path d="M3296 4002 c-2 -4 -1 -14 4 -22 7 -11 9 -9 7 8 -1 24 -3 26 -11 14z"/>
<path d="M3145 3576 c10 -14 19 -26 22 -26 7 0 -17 39 -28 46 -6 3 -3 -5 6
-20z"/>
<path d="M3170 3579 c13 -23 22 -25 13 -2 -5 12 -3 14 8 8 8 -5 11 -4 6 0 -4
5 -14 10 -22 11 -12 2 -12 -2 -5 -17z"/>
<path d="M3470 2936 c0 -2 7 -7 16 -10 8 -3 12 -2 9 4 -6 10 -25 14 -25 6z"/>
<path d="M3420 2810 c-9 -6 -10 -10 -3 -10 6 0 15 5 18 10 8 12 4 12 -15 0z"/>
<path d="M4544 3352 c-9 -5 -8 -10 1 -19 11 -10 13 -9 12 7 -1 11 -1 20 -2 20
0 0 -5 -4 -11 -8z"/>
<path d="M2740 2635 c-11 -13 -10 -14 4 -9 9 3 16 10 16 15 0 13 -6 11 -20 -6z"/>
<path d="M2936 2548 c3 -5 10 -6 15 -3 13 9 11 12 -6 12 -8 0 -12 -4 -9 -9z"/>
<path d="M5128 2663 c7 -3 16 -2 19 1 4 3 -2 6 -13 5 -11 0 -14 -3 -6 -6z"/>
<path d="M1964 2418 c-10 -13 -12 -17 -4 -11 8 6 18 12 23 12 8 1 11 11 4 17
-2 2 -12 -6 -23 -18z"/>
<path d="M1935 2311 c-3 -5 -2 -12 3 -15 5 -3 9 1 9 9 0 17 -3 19 -12 6z"/>
<path d="M4646 2373 c-6 -14 -5 -15 5 -6 7 7 10 15 7 18 -3 3 -9 -2 -12 -12z"/>
<path d="M5369 2378 c7 -9 9 -23 5 -30 -6 -10 -4 -11 7 0 11 10 10 15 -6 30
-17 15 -18 15 -6 0z"/>
<path d="M4570 1871 c0 -6 4 -13 10 -16 6 -3 7 1 4 9 -7 18 -14 21 -14 7z"/>
<path d="M4675 1720 c10 -11 20 -20 23 -20 3 0 -3 9 -13 20 -10 11 -20 20 -23
20 -3 0 3 -9 13 -20z"/>
<path d="M4655 1710 c10 -11 20 -20 23 -20 3 0 -3 9 -13 20 -10 11 -20 20 -23
20 -3 0 3 -9 13 -20z"/>
<path d="M3659 2143 c-13 -16 -12 -17 4 -4 16 13 21 21 13 21 -2 0 -10 -8 -17
-17z"/>
<path d="M3189 2278 c-5 -18 -6 -38 -1 -34 7 8 12 36 6 36 -2 0 -4 -1 -5 -2z"/>
<path d="M3364 2209 c-3 -6 -2 -15 3 -20 5 -5 9 -1 9 11 0 23 -2 24 -12 9z"/>
<path d="M5066 1978 c3 -5 10 -6 15 -3 13 9 11 12 -6 12 -8 0 -12 -4 -9 -9z"/>
<path d="M977 3184 c-1 -1 -35 -4 -76 -6 -47 -3 -76 -10 -82 -19 -30 -48 17
-57 326 -65 256 -6 321 0 342 32 14 23 14 26 -2 44 -17 19 -30 20 -262 18
-134 -1 -245 -3 -246 -4z m499 -27 c4 -3 4 -14 0 -23 -6 -16 -31 -17 -322 -11
-174 3 -319 8 -322 11 -15 15 24 20 211 27 226 8 423 6 433 -4z"/>
<path d="M1130 2731 c-85 -3 -161 -10 -169 -15 -10 -6 -12 -6 -7 3 12 19 -45
1 -69 -22 -20 -20 -20 -20 0 -11 29 12 209 20 516 22 224 2 268 0 278 -12 10
-12 8 -17 -10 -27 -18 -9 -104 -10 -364 -5 -187 4 -357 9 -377 13 -30 4 -38 2
-38 -10 0 -8 7 -18 16 -21 9 -4 13 -2 8 5 -4 8 1 9 17 3 30 -9 209 -16 504
-18 210 -1 233 1 259 18 22 14 26 20 15 27 -8 5 -10 9 -6 9 5 0 1 8 -8 17 -10
9 -38 20 -64 24 -50 9 -260 8 -501 0z"/>
<path d="M838 2475 c-2 -2 -44 -6 -92 -9 -108 -6 -135 -22 -96 -58 23 -22 25
-22 384 -21 480 1 449 -1 470 34 16 28 16 29 -1 29 -11 0 -14 3 -6 8 12 8 -8
9 -389 15 -146 3 -268 4 -270 2z m648 -38 c4 -4 4 -10 0 -14 -10 -11 -563 -17
-711 -8 -134 8 -165 21 -62 28 103 7 765 2 773 -6z"/>
</g>
</svg>
